<?xml version="1.0" encoding="UTF-8" standalone="no"?>
<!DOCTYPE svg PUBLIC "-//W3C//DTD SVG 1.1//EN"
 "http://www.w3.org/Graphics/SVG/1.1/DTD/svg11.dtd">
<!-- Generated by graphviz version 8.0.5 (20230430.1635)
 -->
<!-- Title: layer1_transactions Pages: 1 -->
<svg width="1737pt" height="254pt"
 viewBox="0.00 0.00 1737.25 254.00" xmlns="http://www.w3.org/2000/svg" xmlns:xlink="http://www.w3.org/1999/xlink">
<g id="graph0" class="graph" transform="scale(1 1) rotate(0) translate(4 250)">
<title>layer1_transactions</title>
<polygon fill="white" stroke="none" points="-4,4 -4,-250 1733.25,-250 1733.25,4 -4,4"/>
<!-- tokenA -->
<g id="node1" class="node">
<title>tokenA</title>
<polygon fill="none" stroke="black" points="288.75,-176.5 288.75,-245.5 430.75,-245.5 430.75,-176.5 288.75,-176.5"/>
<text text-anchor="middle" x="359.75" y="-228.2" font-family="Helvetica,Arial,sans-serif" font-size="14.00">game&#45;address&#45;A</text>
<polyline fill="none" stroke="black" points="288.75,-222.5 430.75,-222.5"/>
<text text-anchor="middle" x="359.75" y="-205.2" font-family="Helvetica,Arial,sans-serif" font-size="14.00">10 ADA + 1 pid.pkhA</text>
<polyline fill="none" stroke="black" points="288.75,-199.5 430.75,-199.5"/>
<text text-anchor="middle" x="359.75" y="-182.2" font-family="Helvetica,Arial,sans-serif" font-size="14.00"> </text>
</g>
<!-- commit&#45;a -->
<g id="node6" class="node">
<title>commit&#45;a</title>
<path fill="none" stroke="black" d="M497.5,-88.5C497.5,-88.5 580.25,-88.5 580.25,-88.5 586.25,-88.5 592.25,-94.5 592.25,-100.5 592.25,-100.5 592.25,-145.5 592.25,-145.5 592.25,-151.5 586.25,-157.5 580.25,-157.5 580.25,-157.5 497.5,-157.5 497.5,-157.5 491.5,-157.5 485.5,-151.5 485.5,-145.5 485.5,-145.5 485.5,-100.5 485.5,-100.5 485.5,-94.5 491.5,-88.5 497.5,-88.5"/>
<text text-anchor="middle" x="538.88" y="-140.2" font-family="Helvetica,Arial,sans-serif" font-size="14.00">commit&#45;tx</text>
<polyline fill="none" stroke="black" points="485.5,-134.5 592.25,-134.5"/>
<text text-anchor="middle" x="538.88" y="-117.2" font-family="Helvetica,Arial,sans-serif" font-size="14.00">σ(A), σ(FundA)</text>
<polyline fill="none" stroke="black" points="485.5,-111.5 592.25,-111.5"/>
<text text-anchor="middle" x="538.88" y="-94.2" font-family="Helvetica,Arial,sans-serif" font-size="14.00"> </text>
</g>
<!-- tokenA&#45;&gt;commit&#45;a -->
<g id="edge4" class="edge">
<title>tokenA&#45;&gt;commit&#45;a</title>
<path fill="none" stroke="black" d="M430.04,-176.66C436.62,-173.4 443.19,-170.14 449.5,-167 457.98,-162.79 466.91,-158.35 475.7,-153.97"/>
<polygon fill="black" stroke="black" points="477.15,-156.66 484.54,-149.07 474.03,-150.4 477.15,-156.66"/>
</g>
<!-- mint&#45;token&#45;a -->
<g id="node2" class="node">
<title>mint&#45;token&#45;a</title>
<path fill="none" stroke="black" d="M124,-132.5C124,-132.5 222,-132.5 222,-132.5 228,-132.5 234,-138.5 234,-144.5 234,-144.5 234,-189.5 234,-189.5 234,-195.5 228,-201.5 222,-201.5 222,-201.5 124,-201.5 124,-201.5 118,-201.5 112,-195.5 112,-189.5 112,-189.5 112,-144.5 112,-144.5 112,-138.5 118,-132.5 124,-132.5"/>
<text text-anchor="middle" x="173" y="-184.2" font-family="Helvetica,Arial,sans-serif" font-size="14.00">register&#45;token</text>
<polyline fill="none" stroke="black" points="112,-178.5 234,-178.5"/>
<text text-anchor="middle" x="173" y="-161.2" font-family="Helvetica,Arial,sans-serif" font-size="14.00">σ(A)</text>
<polyline fill="none" stroke="black" points="112,-155.5 234,-155.5"/>
<text text-anchor="middle" x="133.12" y="-138.2" font-family="Helvetica,Arial,sans-serif" font-size="14.00">mint</text>
<polyline fill="none" stroke="black" points="154.25,-132.5 154.25,-155.5"/>
<text text-anchor="middle" x="194.12" y="-138.2" font-family="Helvetica,Arial,sans-serif" font-size="14.00">1 pid.pkhA</text>
</g>
<!-- mint&#45;token&#45;a&#45;&gt;tokenA -->
<g id="edge3" class="edge">
<title>mint&#45;token&#45;a&#45;&gt;tokenA</title>
<path fill="none" stroke="black" d="M233.98,-181.29C248.06,-184.64 263.28,-188.26 278.09,-191.79"/>
<polygon fill="black" stroke="black" points="277.25,-195.43 287.79,-194.34 278.87,-188.62 277.25,-195.43"/>
</g>
<!-- change&#45;a -->
<g id="node4" class="node">
<title>change&#45;a</title>
<polygon fill="none" stroke="black" points="321.75,-88.5 321.75,-157.5 397.75,-157.5 397.75,-88.5 321.75,-88.5"/>
<text text-anchor="middle" x="359.75" y="-140.2" font-family="Helvetica,Arial,sans-serif" font-size="14.00">address&#45;a</text>
<polyline fill="none" stroke="black" points="321.75,-134.5 397.75,-134.5"/>
<text text-anchor="middle" x="359.75" y="-117.2" font-family="Helvetica,Arial,sans-serif" font-size="14.00">X&#39; ADA</text>
<polyline fill="none" stroke="black" points="321.75,-111.5 397.75,-111.5"/>
<text text-anchor="middle" x="359.75" y="-94.2" font-family="Helvetica,Arial,sans-serif" font-size="14.00"> </text>
</g>
<!-- mint&#45;token&#45;a&#45;&gt;change&#45;a -->
<g id="edge2" class="edge">
<title>mint&#45;token&#45;a&#45;&gt;change&#45;a</title>
<path fill="none" stroke="black" d="M233.98,-152.71C259.11,-146.73 287.9,-139.87 311.48,-134.26"/>
<polygon fill="black" stroke="black" points="312.01,-137.49 320.92,-131.77 310.39,-130.68 312.01,-137.49"/>
</g>
<!-- fees&#45;a -->
<g id="node3" class="node">
<title>fees&#45;a</title>
<polygon fill="none" stroke="black" points="0,-132.5 0,-201.5 76,-201.5 76,-132.5 0,-132.5"/>
<text text-anchor="middle" x="38" y="-184.2" font-family="Helvetica,Arial,sans-serif" font-size="14.00">address&#45;a</text>
<polyline fill="none" stroke="black" points="0,-178.5 76,-178.5"/>
<text text-anchor="middle" x="38" y="-161.2" font-family="Helvetica,Arial,sans-serif" font-size="14.00">X ADA</text>
<polyline fill="none" stroke="black" points="0,-155.5 76,-155.5"/>
<text text-anchor="middle" x="38" y="-138.2" font-family="Helvetica,Arial,sans-serif" font-size="14.00"> </text>
</g>
<!-- fees&#45;a&#45;&gt;mint&#45;token&#45;a -->
<g id="edge1" class="edge">
<title>fees&#45;a&#45;&gt;mint&#45;token&#45;a</title>
<path fill="none" stroke="black" d="M75.69,-167C83.73,-167 92.5,-167 101.36,-167"/>
<polygon fill="black" stroke="black" points="101.18,-170.5 111.18,-167 101.18,-163.5 101.18,-170.5"/>
</g>
<!-- change&#45;a&#45;&gt;commit&#45;a -->
<g id="edge5" class="edge">
<title>change&#45;a&#45;&gt;commit&#45;a</title>
<path fill="none" stroke="black" d="M397.45,-123C419.79,-123 448.94,-123 474.88,-123"/>
<polygon fill="black" stroke="black" points="474.77,-126.5 484.77,-123 474.77,-119.5 474.77,-126.5"/>
</g>
<!-- initial&#45;a -->
<g id="node5" class="node">
<title>initial&#45;a</title>
<polygon fill="none" stroke="black" points="270,-0.5 270,-69.5 449.5,-69.5 449.5,-0.5 270,-0.5"/>
<text text-anchor="middle" x="359.75" y="-52.2" font-family="Helvetica,Arial,sans-serif" font-size="14.00">ν_initial</text>
<polyline fill="none" stroke="black" points="270,-46.5 449.5,-46.5"/>
<text text-anchor="middle" x="359.75" y="-29.2" font-family="Helvetica,Arial,sans-serif" font-size="14.00">2 ADA + 1 headId.pkhFund</text>
<polyline fill="none" stroke="black" points="270,-23.5 449.5,-23.5"/>
<text text-anchor="middle" x="359.75" y="-6.2" font-family="Helvetica,Arial,sans-serif" font-size="14.00">headId</text>
</g>
<!-- initial&#45;a&#45;&gt;commit&#45;a -->
<g id="edge6" class="edge">
<title>initial&#45;a&#45;&gt;commit&#45;a</title>
<path fill="none" stroke="black" d="M430.04,-69.34C436.62,-72.6 443.19,-75.86 449.5,-79 457.98,-83.21 466.91,-87.65 475.7,-92.03"/>
<polygon fill="black" stroke="black" points="474.03,-95.6 484.54,-96.93 477.15,-89.34 474.03,-95.6"/>
<text text-anchor="middle" x="417.67" y="-83.63" font-family="Helvetica,Arial,sans-serif" font-size="14.00">ViaCommit(ρ(tokenA))</text>
</g>
<!-- commit&#45;output&#45;a -->
<g id="node7" class="node">
<title>commit&#45;output&#45;a</title>
<polygon fill="none" stroke="black" points="628.25,-132.75 628.25,-203.25 894.75,-203.25 894.75,-132.75 628.25,-132.75"/>
<text text-anchor="middle" x="761.5" y="-185.95" font-family="Helvetica,Arial,sans-serif" font-size="14.00">ν_commit</text>
<polyline fill="none" stroke="black" points="628.25,-180.25 894.75,-180.25"/>
<text text-anchor="middle" x="761.5" y="-162.95" font-family="Helvetica,Arial,sans-serif" font-size="14.00">12 ADA + 1 headId.pkhFund + 1 pid.pkhA</text>
<polyline fill="none" stroke="black" points="628.25,-157.25 894.75,-157.25"/>
<text text-anchor="middle" x="761.5" y="-139.95" font-family="Helvetica,Arial,sans-serif" font-size="14.00">ρ(tokenA), ϕ(tokenA)</text>
</g>
<!-- commit&#45;a&#45;&gt;commit&#45;output&#45;a -->
<g id="edge7" class="edge">
<title>commit&#45;a&#45;&gt;commit&#45;output&#45;a</title>
<path fill="none" stroke="black" d="M592.16,-133.66C600.22,-135.31 608.86,-137.07 617.81,-138.9"/>
<polygon fill="black" stroke="black" points="616.94,-142.49 627.44,-141.06 618.34,-135.64 616.94,-142.49"/>
</g>
<!-- change&#45;fund&#45;a -->
<g id="node8" class="node">
<title>change&#45;fund&#45;a</title>
<polygon fill="none" stroke="black" points="708.12,-44.5 708.12,-113.5 814.88,-113.5 814.88,-44.5 708.12,-44.5"/>
<text text-anchor="middle" x="761.5" y="-96.2" font-family="Helvetica,Arial,sans-serif" font-size="14.00">address&#45;fund&#45;a</text>
<polyline fill="none" stroke="black" points="708.12,-90.5 814.88,-90.5"/>
<text text-anchor="middle" x="761.5" y="-73.2" font-family="Helvetica,Arial,sans-serif" font-size="14.00">X&#39; ADA</text>
<polyline fill="none" stroke="black" points="708.12,-67.5 814.88,-67.5"/>
<text text-anchor="middle" x="761.5" y="-50.2" font-family="Helvetica,Arial,sans-serif" font-size="14.00"> </text>
</g>
<!-- commit&#45;a&#45;&gt;change&#45;fund&#45;a -->
<g id="edge8" class="edge">
<title>commit&#45;a&#45;&gt;change&#45;fund&#45;a</title>
<path fill="none" stroke="black" d="M592.16,-112.57C623.78,-106.27 664.29,-98.19 697.65,-91.53"/>
<polygon fill="black" stroke="black" points="698.09,-94.82 707.21,-89.43 696.72,-87.95 698.09,-94.82"/>
</g>
<!-- collect&#45;com&#45;a -->
<g id="node9" class="node">
<title>collect&#45;com&#45;a</title>
<path fill="none" stroke="black" d="M942.75,-88.5C942.75,-88.5 1018.75,-88.5 1018.75,-88.5 1024.75,-88.5 1030.75,-94.5 1030.75,-100.5 1030.75,-100.5 1030.75,-145.5 1030.75,-145.5 1030.75,-151.5 1024.75,-157.5 1018.75,-157.5 1018.75,-157.5 942.75,-157.5 942.75,-157.5 936.75,-157.5 930.75,-151.5 930.75,-145.5 930.75,-145.5 930.75,-100.5 930.75,-100.5 930.75,-94.5 936.75,-88.5 942.75,-88.5"/>
<text text-anchor="middle" x="980.75" y="-140.2" font-family="Helvetica,Arial,sans-serif" font-size="14.00">collect&#45;com&#45;tx</text>
<polyline fill="none" stroke="black" points="930.75,-134.5 1030.75,-134.5"/>
<text text-anchor="middle" x="980.75" y="-117.2" font-family="Helvetica,Arial,sans-serif" font-size="14.00">σ(FundA)</text>
<polyline fill="none" stroke="black" points="930.75,-111.5 1030.75,-111.5"/>
<text text-anchor="middle" x="980.75" y="-94.2" font-family="Helvetica,Arial,sans-serif" font-size="14.00"> </text>
</g>
<!-- commit&#45;output&#45;a&#45;&gt;collect&#45;com&#45;a -->
<g id="edge10" class="edge">
<title>commit&#45;output&#45;a&#45;&gt;collect&#45;com&#45;a</title>
<path fill="none" stroke="black" d="M894.51,-140.66C903.31,-138.83 911.89,-137.06 920.01,-135.37"/>
<polygon fill="black" stroke="black" points="920.69,-138.6 929.77,-133.14 919.27,-131.75 920.69,-138.6"/>
<text text-anchor="middle" x="885.77" y="-119.84" font-family="Helvetica,Arial,sans-serif" font-size="14.00">ViaCollectCom</text>
</g>
<!-- change&#45;fund&#45;a&#45;&gt;collect&#45;com&#45;a -->
<g id="edge9" class="edge">
<title>change&#45;fund&#45;a&#45;&gt;collect&#45;com&#45;a</title>
<path fill="none" stroke="black" d="M814.81,-89.6C846.65,-96.04 887.4,-104.3 920.44,-110.99"/>
<polygon fill="black" stroke="black" points="919.37,-114.55 929.87,-113.1 920.76,-107.68 919.37,-114.55"/>
</g>
<!-- head&#45;output&#45;a -->
<g id="node10" class="node">
<title>head&#45;output&#45;a</title>
<polygon fill="none" stroke="black" points="1066.75,-132.5 1066.75,-201.5 1333.25,-201.5 1333.25,-132.5 1066.75,-132.5"/>
<text text-anchor="middle" x="1200" y="-184.2" font-family="Helvetica,Arial,sans-serif" font-size="14.00">ν_head</text>
<polyline fill="none" stroke="black" points="1066.75,-178.5 1333.25,-178.5"/>
<text text-anchor="middle" x="1200" y="-161.2" font-family="Helvetica,Arial,sans-serif" font-size="14.00">12 ADA + 1 headId.pkhFund + 1 pid.pkhA</text>
<polyline fill="none" stroke="black" points="1066.75,-155.5 1333.25,-155.5"/>
<text text-anchor="middle" x="1200" y="-138.2" font-family="Helvetica,Arial,sans-serif" font-size="14.00">head_state</text>
</g>
<!-- collect&#45;com&#45;a&#45;&gt;head&#45;output&#45;a -->
<g id="edge11" class="edge">
<title>collect&#45;com&#45;a&#45;&gt;head&#45;output&#45;a</title>
<path fill="none" stroke="black" d="M1030.51,-132.87C1038.51,-134.5 1047.14,-136.24 1056.12,-138.06"/>
<polygon fill="black" stroke="black" points="1055.31,-141.67 1065.81,-140.23 1056.7,-134.81 1055.31,-141.67"/>
</g>
<!-- change&#45;fund&#45;1&#45;a -->
<g id="node11" class="node">
<title>change&#45;fund&#45;1&#45;a</title>
<polygon fill="none" stroke="black" points="1146.62,-44.5 1146.62,-113.5 1253.38,-113.5 1253.38,-44.5 1146.62,-44.5"/>
<text text-anchor="middle" x="1200" y="-96.2" font-family="Helvetica,Arial,sans-serif" font-size="14.00">address&#45;fund&#45;a</text>
<polyline fill="none" stroke="black" points="1146.62,-90.5 1253.38,-90.5"/>
<text text-anchor="middle" x="1200" y="-73.2" font-family="Helvetica,Arial,sans-serif" font-size="14.00">X&#39;&#39; ADA</text>
<polyline fill="none" stroke="black" points="1146.62,-67.5 1253.38,-67.5"/>
<text text-anchor="middle" x="1200" y="-50.2" font-family="Helvetica,Arial,sans-serif" font-size="14.00"> </text>
</g>
<!-- collect&#45;com&#45;a&#45;&gt;change&#45;fund&#45;1&#45;a -->
<g id="edge12" class="edge">
<title>collect&#45;com&#45;a&#45;&gt;change&#45;fund&#45;1&#45;a</title>
<path fill="none" stroke="black" d="M1030.51,-113.13C1061.77,-106.79 1102.67,-98.51 1136.34,-91.69"/>
<polygon fill="black" stroke="black" points="1136.89,-94.95 1146,-89.53 1135.5,-88.09 1136.89,-94.95"/>
</g>
<!-- close&#45;a -->
<g id="node12" class="node">
<title>close&#45;a</title>
<path fill="none" stroke="black" d="M1381.25,-132.5C1381.25,-132.5 1430.25,-132.5 1430.25,-132.5 1436.25,-132.5 1442.25,-138.5 1442.25,-144.5 1442.25,-144.5 1442.25,-189.5 1442.25,-189.5 1442.25,-195.5 1436.25,-201.5 1430.25,-201.5 1430.25,-201.5 1381.25,-201.5 1381.25,-201.5 1375.25,-201.5 1369.25,-195.5 1369.25,-189.5 1369.25,-189.5 1369.25,-144.5 1369.25,-144.5 1369.25,-138.5 1375.25,-132.5 1381.25,-132.5"/>
<text text-anchor="middle" x="1405.75" y="-184.2" font-family="Helvetica,Arial,sans-serif" font-size="14.00">close&#45;tx</text>
<polyline fill="none" stroke="black" points="1369.25,-178.5 1442.25,-178.5"/>
<text text-anchor="middle" x="1405.75" y="-161.2" font-family="Helvetica,Arial,sans-serif" font-size="14.00">σ(FundA)</text>
<polyline fill="none" stroke="black" points="1369.25,-155.5 1442.25,-155.5"/>
<text text-anchor="middle" x="1405.75" y="-138.2" font-family="Helvetica,Arial,sans-serif" font-size="14.00"> </text>
</g>
<!-- head&#45;output&#45;a&#45;&gt;close&#45;a -->
<g id="edge13" class="edge">
<title>head&#45;output&#45;a&#45;&gt;close&#45;a</title>
<path fill="none" stroke="black" d="M1333.2,-167C1342.12,-167 1350.69,-167 1358.61,-167"/>
<polygon fill="black" stroke="black" points="1358.35,-170.5 1368.35,-167 1358.35,-163.5 1358.35,-170.5"/>
</g>
<!-- fanout&#45;a -->
<g id="node13" class="node">
<title>fanout&#45;a</title>
<path fill="none" stroke="black" d="M1490.25,-132.5C1490.25,-132.5 1539.25,-132.5 1539.25,-132.5 1545.25,-132.5 1551.25,-138.5 1551.25,-144.5 1551.25,-144.5 1551.25,-189.5 1551.25,-189.5 1551.25,-195.5 1545.25,-201.5 1539.25,-201.5 1539.25,-201.5 1490.25,-201.5 1490.25,-201.5 1484.25,-201.5 1478.25,-195.5 1478.25,-189.5 1478.25,-189.5 1478.25,-144.5 1478.25,-144.5 1478.25,-138.5 1484.25,-132.5 1490.25,-132.5"/>
<text text-anchor="middle" x="1514.75" y="-184.2" font-family="Helvetica,Arial,sans-serif" font-size="14.00">fanout&#45;tx</text>
<polyline fill="none" stroke="black" points="1478.25,-178.5 1551.25,-178.5"/>
<text text-anchor="middle" x="1514.75" y="-161.2" font-family="Helvetica,Arial,sans-serif" font-size="14.00">σ(FundA)</text>
<polyline fill="none" stroke="black" points="1478.25,-155.5 1551.25,-155.5"/>
<text text-anchor="middle" x="1514.75" y="-138.2" font-family="Helvetica,Arial,sans-serif" font-size="14.00"> </text>
</g>
<!-- close&#45;a&#45;&gt;fanout&#45;a -->
<g id="edge14" class="edge">
<title>close&#45;a&#45;&gt;fanout&#45;a</title>
<path fill="none" stroke="black" stroke-dasharray="5,2" d="M1442.08,-167C1450.21,-167 1458.97,-167 1467.48,-167"/>
<polygon fill="black" stroke="black" points="1467.45,-170.5 1477.45,-167 1467.45,-163.5 1467.45,-170.5"/>
</g>
<!-- token&#45;head&#45;a -->
<g id="node14" class="node">
<title>token&#45;head&#45;a</title>
<polygon fill="none" stroke="black" points="1587.25,-132.5 1587.25,-201.5 1729.25,-201.5 1729.25,-132.5 1587.25,-132.5"/>
<text text-anchor="middle" x="1658.25" y="-184.2" font-family="Helvetica,Arial,sans-serif" font-size="14.00">game&#45;address&#45;A</text>
<polyline fill="none" stroke="black" points="1587.25,-178.5 1729.25,-178.5"/>
<text text-anchor="middle" x="1658.25" y="-161.2" font-family="Helvetica,Arial,sans-serif" font-size="14.00">10 ADA + 1 pid.pkhA</text>
<polyline fill="none" stroke="black" points="1587.25,-155.5 1729.25,-155.5"/>
<text text-anchor="middle" x="1658.25" y="-138.2" font-family="Helvetica,Arial,sans-serif" font-size="14.00"> </text>
</g>
<!-- fanout&#45;a&#45;&gt;token&#45;head&#45;a -->
<g id="edge15" class="edge">
<title>fanout&#45;a&#45;&gt;token&#45;head&#45;a</title>
<path fill="none" stroke="black" d="M1551.09,-167C1558.95,-167 1567.59,-167 1576.45,-167"/>
<polygon fill="black" stroke="black" points="1576.32,-170.5 1586.32,-167 1576.32,-163.5 1576.32,-170.5"/>
</g>
</g>
</svg>
