<?xml version="1.0" encoding="UTF-8" standalone="no"?>
<!DOCTYPE svg PUBLIC "-//W3C//DTD SVG 1.1//EN"
 "http://www.w3.org/Graphics/SVG/1.1/DTD/svg11.dtd">
<!-- Generated by graphviz version 8.0.5 (20230430.1635)
 -->
<!-- Title: chess_transactions Pages: 1 -->
<svg width="942pt" height="1341pt"
 viewBox="0.00 0.00 941.50 1341.00" xmlns="http://www.w3.org/2000/svg" xmlns:xlink="http://www.w3.org/1999/xlink">
<g id="graph0" class="graph" transform="scale(1 1) rotate(0) translate(4 1337)">
<title>chess_transactions</title>
<polygon fill="white" stroke="none" points="-4,4 -4,-1337 937.5,-1337 937.5,4 -4,4"/>
<!-- game&#45;token&#45;a -->
<g id="node1" class="node">
<title>game&#45;token&#45;a</title>
<polygon fill="none" stroke="black" points="93.25,-1263.5 93.25,-1332.5 235.25,-1332.5 235.25,-1263.5 93.25,-1263.5"/>
<text text-anchor="middle" x="164.25" y="-1315.2" font-family="Helvetica,Arial,sans-serif" font-size="14.00">game&#45;address&#45;A</text>
<polyline fill="none" stroke="black" points="93.25,-1309.5 235.25,-1309.5"/>
<text text-anchor="middle" x="164.25" y="-1292.2" font-family="Helvetica,Arial,sans-serif" font-size="14.00">10 ADA + 1 pid.pkhA</text>
<polyline fill="none" stroke="black" points="93.25,-1286.5 235.25,-1286.5"/>
<text text-anchor="middle" x="164.25" y="-1269.2" font-family="Helvetica,Arial,sans-serif" font-size="14.00"> </text>
</g>
<!-- split&#45;tx&#45;a -->
<g id="node2" class="node">
<title>split&#45;tx&#45;a</title>
<path fill="none" stroke="black" d="M148.75,-1180.5C148.75,-1180.5 179.75,-1180.5 179.75,-1180.5 185.75,-1180.5 191.75,-1186.5 191.75,-1192.5 191.75,-1192.5 191.75,-1214.5 191.75,-1214.5 191.75,-1220.5 185.75,-1226.5 179.75,-1226.5 179.75,-1226.5 148.75,-1226.5 148.75,-1226.5 142.75,-1226.5 136.75,-1220.5 136.75,-1214.5 136.75,-1214.5 136.75,-1192.5 136.75,-1192.5 136.75,-1186.5 142.75,-1180.5 148.75,-1180.5"/>
<text text-anchor="middle" x="164.25" y="-1209.2" font-family="Helvetica,Arial,sans-serif" font-size="14.00">split&#45;tx</text>
<polyline fill="none" stroke="black" points="136.75,-1203.5 191.75,-1203.5"/>
<text text-anchor="middle" x="164.25" y="-1186.2" font-family="Helvetica,Arial,sans-serif" font-size="14.00">σ(A)</text>
</g>
<!-- game&#45;token&#45;a&#45;&gt;split&#45;tx&#45;a -->
<g id="edge1" class="edge">
<title>game&#45;token&#45;a&#45;&gt;split&#45;tx&#45;a</title>
<path fill="none" stroke="black" d="M164.25,-1263.61C164.25,-1254.97 164.25,-1245.68 164.25,-1237.09"/>
<polygon fill="black" stroke="black" points="167.75,-1237.3 164.25,-1227.3 160.75,-1237.3 167.75,-1237.3"/>
</g>
<!-- collateral&#45;a -->
<g id="node3" class="node">
<title>collateral&#45;a</title>
<polygon fill="none" stroke="black" points="0,-1074.5 0,-1143.5 116.5,-1143.5 116.5,-1074.5 0,-1074.5"/>
<text text-anchor="middle" x="58.25" y="-1126.2" font-family="Helvetica,Arial,sans-serif" font-size="14.00">game&#45;address&#45;A</text>
<polyline fill="none" stroke="black" points="0,-1120.5 116.5,-1120.5"/>
<text text-anchor="middle" x="58.25" y="-1103.2" font-family="Helvetica,Arial,sans-serif" font-size="14.00">8 ADA</text>
<polyline fill="none" stroke="black" points="0,-1097.5 116.5,-1097.5"/>
<text text-anchor="middle" x="58.25" y="-1080.2" font-family="Helvetica,Arial,sans-serif" font-size="14.00"> </text>
</g>
<!-- split&#45;tx&#45;a&#45;&gt;collateral&#45;a -->
<g id="edge2" class="edge">
<title>split&#45;tx&#45;a&#45;&gt;collateral&#45;a</title>
<path fill="none" stroke="black" d="M139.13,-1180.58C128.78,-1171.55 116.45,-1160.79 104.58,-1150.43"/>
<polygon fill="black" stroke="black" points="107.3,-1147.28 97.46,-1143.35 102.7,-1152.56 107.3,-1147.28"/>
</g>
<!-- game&#45;token&#45;1&#45;a -->
<g id="node4" class="node">
<title>game&#45;token&#45;1&#45;a</title>
<polygon fill="none" stroke="black" points="135,-1074.5 135,-1143.5 269.5,-1143.5 269.5,-1074.5 135,-1074.5"/>
<text text-anchor="middle" x="202.25" y="-1126.2" font-family="Helvetica,Arial,sans-serif" font-size="14.00">elo&#45;script(pkhA)</text>
<polyline fill="none" stroke="black" points="135,-1120.5 269.5,-1120.5"/>
<text text-anchor="middle" x="202.25" y="-1103.2" font-family="Helvetica,Arial,sans-serif" font-size="14.00">2 ADA + 1 pid.pkhA</text>
<polyline fill="none" stroke="black" points="135,-1097.5 269.5,-1097.5"/>
<text text-anchor="middle" x="202.25" y="-1080.2" font-family="Helvetica,Arial,sans-serif" font-size="14.00">1000</text>
</g>
<!-- split&#45;tx&#45;a&#45;&gt;game&#45;token&#45;1&#45;a -->
<g id="edge3" class="edge">
<title>split&#45;tx&#45;a&#45;&gt;game&#45;token&#45;1&#45;a</title>
<path fill="none" stroke="black" d="M173.26,-1180.58C176.61,-1172.42 180.54,-1162.84 184.41,-1153.43"/>
<polygon fill="black" stroke="black" points="187.99,-1154.93 188.55,-1144.35 181.51,-1152.27 187.99,-1154.93"/>
</g>
<!-- new&#45;game -->
<g id="node9" class="node">
<title>new&#45;game</title>
<path fill="none" stroke="black" d="M174.38,-980C174.38,-980 230.12,-980 230.12,-980 236.12,-980 242.12,-986 242.12,-992 242.12,-992 242.12,-1014 242.12,-1014 242.12,-1020 236.12,-1026 230.12,-1026 230.12,-1026 174.38,-1026 174.38,-1026 168.38,-1026 162.38,-1020 162.38,-1014 162.38,-1014 162.38,-992 162.38,-992 162.38,-986 168.38,-980 174.38,-980"/>
<text text-anchor="middle" x="202.25" y="-1008.7" font-family="Helvetica,Arial,sans-serif" font-size="14.00">new&#45;game</text>
<polyline fill="none" stroke="black" points="162.38,-1003 242.12,-1003"/>
<text text-anchor="middle" x="202.25" y="-985.7" font-family="Helvetica,Arial,sans-serif" font-size="14.00">σ(A)</text>
</g>
<!-- collateral&#45;a&#45;&gt;new&#45;game -->
<g id="edge7" class="edge">
<title>collateral&#45;a&#45;&gt;new&#45;game</title>
<path fill="none" stroke="black" d="M104.61,-1074.52C123.54,-1060.85 145.2,-1045.2 163.3,-1032.13"/>
<polygon fill="black" stroke="black" points="164.81,-1034.63 170.87,-1025.94 160.71,-1028.96 164.81,-1034.63"/>
</g>
<!-- game&#45;token&#45;1&#45;a&#45;&gt;new&#45;game -->
<g id="edge8" class="edge">
<title>game&#45;token&#45;1&#45;a&#45;&gt;new&#45;game</title>
<path fill="none" stroke="black" d="M202.25,-1074.52C202.25,-1062.46 202.25,-1048.87 202.25,-1036.87"/>
<polygon fill="black" stroke="black" points="205.75,-1036.94 202.25,-1026.94 198.75,-1036.94 205.75,-1036.94"/>
<text text-anchor="middle" x="197.75" y="-1061.22" font-family="Helvetica,Arial,sans-serif" font-size="14.00">()</text>
</g>
<!-- game&#45;token&#45;b -->
<g id="node5" class="node">
<title>game&#45;token&#45;b</title>
<polygon fill="none" stroke="black" points="321.25,-1263.5 321.25,-1332.5 463.25,-1332.5 463.25,-1263.5 321.25,-1263.5"/>
<text text-anchor="middle" x="392.25" y="-1315.2" font-family="Helvetica,Arial,sans-serif" font-size="14.00">game&#45;address&#45;B</text>
<polyline fill="none" stroke="black" points="321.25,-1309.5 463.25,-1309.5"/>
<text text-anchor="middle" x="392.25" y="-1292.2" font-family="Helvetica,Arial,sans-serif" font-size="14.00">10 ADA + 1 pid.pkhB</text>
<polyline fill="none" stroke="black" points="321.25,-1286.5 463.25,-1286.5"/>
<text text-anchor="middle" x="392.25" y="-1269.2" font-family="Helvetica,Arial,sans-serif" font-size="14.00"> </text>
</g>
<!-- split&#45;tx&#45;b -->
<g id="node6" class="node">
<title>split&#45;tx&#45;b</title>
<path fill="none" stroke="black" d="M376.75,-1180.5C376.75,-1180.5 407.75,-1180.5 407.75,-1180.5 413.75,-1180.5 419.75,-1186.5 419.75,-1192.5 419.75,-1192.5 419.75,-1214.5 419.75,-1214.5 419.75,-1220.5 413.75,-1226.5 407.75,-1226.5 407.75,-1226.5 376.75,-1226.5 376.75,-1226.5 370.75,-1226.5 364.75,-1220.5 364.75,-1214.5 364.75,-1214.5 364.75,-1192.5 364.75,-1192.5 364.75,-1186.5 370.75,-1180.5 376.75,-1180.5"/>
<text text-anchor="middle" x="392.25" y="-1209.2" font-family="Helvetica,Arial,sans-serif" font-size="14.00">split&#45;tx</text>
<polyline fill="none" stroke="black" points="364.75,-1203.5 419.75,-1203.5"/>
<text text-anchor="middle" x="392.25" y="-1186.2" font-family="Helvetica,Arial,sans-serif" font-size="14.00">σ(B)</text>
</g>
<!-- game&#45;token&#45;b&#45;&gt;split&#45;tx&#45;b -->
<g id="edge4" class="edge">
<title>game&#45;token&#45;b&#45;&gt;split&#45;tx&#45;b</title>
<path fill="none" stroke="black" d="M392.25,-1263.61C392.25,-1254.97 392.25,-1245.68 392.25,-1237.09"/>
<polygon fill="black" stroke="black" points="395.75,-1237.3 392.25,-1227.3 388.75,-1237.3 395.75,-1237.3"/>
</g>
<!-- collateral&#45;b -->
<g id="node7" class="node">
<title>collateral&#45;b</title>
<polygon fill="none" stroke="black" points="392,-968.5 392,-1037.5 508.5,-1037.5 508.5,-968.5 392,-968.5"/>
<text text-anchor="middle" x="450.25" y="-1020.2" font-family="Helvetica,Arial,sans-serif" font-size="14.00">game&#45;address&#45;B</text>
<polyline fill="none" stroke="black" points="392,-1014.5 508.5,-1014.5"/>
<text text-anchor="middle" x="450.25" y="-997.2" font-family="Helvetica,Arial,sans-serif" font-size="14.00">8 ADA</text>
<polyline fill="none" stroke="black" points="392,-991.5 508.5,-991.5"/>
<text text-anchor="middle" x="450.25" y="-974.2" font-family="Helvetica,Arial,sans-serif" font-size="14.00"> </text>
</g>
<!-- split&#45;tx&#45;b&#45;&gt;collateral&#45;b -->
<g id="edge5" class="edge">
<title>split&#45;tx&#45;b&#45;&gt;collateral&#45;b</title>
<path fill="none" stroke="black" d="M410.19,-1180.76C417.91,-1170.27 426.29,-1157.13 431.25,-1144 442.89,-1113.21 447.55,-1076.24 449.34,-1048.02"/>
<polygon fill="black" stroke="black" points="452.88,-1048.45 449.92,-1038.28 445.89,-1048.08 452.88,-1048.45"/>
</g>
<!-- game&#45;token&#45;1&#45;b -->
<g id="node8" class="node">
<title>game&#45;token&#45;1&#45;b</title>
<polygon fill="none" stroke="black" points="288,-1074.5 288,-1143.5 422.5,-1143.5 422.5,-1074.5 288,-1074.5"/>
<text text-anchor="middle" x="355.25" y="-1126.2" font-family="Helvetica,Arial,sans-serif" font-size="14.00">elo&#45;script(pkhA)</text>
<polyline fill="none" stroke="black" points="288,-1120.5 422.5,-1120.5"/>
<text text-anchor="middle" x="355.25" y="-1103.2" font-family="Helvetica,Arial,sans-serif" font-size="14.00">2 ADA + 1 pid.pkhB</text>
<polyline fill="none" stroke="black" points="288,-1097.5 422.5,-1097.5"/>
<text text-anchor="middle" x="355.25" y="-1080.2" font-family="Helvetica,Arial,sans-serif" font-size="14.00">1000</text>
</g>
<!-- split&#45;tx&#45;b&#45;&gt;game&#45;token&#45;1&#45;b -->
<g id="edge6" class="edge">
<title>split&#45;tx&#45;b&#45;&gt;game&#45;token&#45;1&#45;b</title>
<path fill="none" stroke="black" d="M383.48,-1180.58C380.22,-1172.42 376.39,-1162.84 372.62,-1153.43"/>
<polygon fill="black" stroke="black" points="375.55,-1152.33 368.59,-1144.35 369.05,-1154.93 375.55,-1152.33"/>
</g>
<!-- play&#45;2 -->
<g id="node15" class="node">
<title>play&#45;2</title>
<path fill="none" stroke="black" d="M367.25,-590.5C367.25,-590.5 397.25,-590.5 397.25,-590.5 403.25,-590.5 409.25,-596.5 409.25,-602.5 409.25,-602.5 409.25,-624.5 409.25,-624.5 409.25,-630.5 403.25,-636.5 397.25,-636.5 397.25,-636.5 367.25,-636.5 367.25,-636.5 361.25,-636.5 355.25,-630.5 355.25,-624.5 355.25,-624.5 355.25,-602.5 355.25,-602.5 355.25,-596.5 361.25,-590.5 367.25,-590.5"/>
<text text-anchor="middle" x="381.88" y="-619.2" font-family="Helvetica,Arial,sans-serif" font-size="14.00">play</text>
<polyline fill="none" stroke="black" points="355.25,-613.5 408.5,-613.5"/>
<text text-anchor="middle" x="381.88" y="-596.2" font-family="Helvetica,Arial,sans-serif" font-size="14.00">σ(B)</text>
</g>
<!-- collateral&#45;b&#45;&gt;play&#45;2 -->
<g id="edge16" class="edge">
<title>collateral&#45;b&#45;&gt;play&#45;2</title>
<path fill="none" stroke="black" d="M454.99,-968.79C462.28,-907.73 471.53,-774.58 431.25,-673 427.18,-662.75 420.58,-652.98 413.52,-644.46"/>
<polygon fill="black" stroke="black" points="416.63,-642.56 407.39,-637.39 411.39,-647.2 416.63,-642.56"/>
</g>
<!-- game&#45;token&#45;1&#45;b&#45;&gt;new&#45;game -->
<g id="edge9" class="edge">
<title>game&#45;token&#45;1&#45;b&#45;&gt;new&#45;game</title>
<path fill="none" stroke="black" d="M306,-1074.52C285.79,-1060.78 262.66,-1045.06 243.37,-1031.95"/>
<polygon fill="black" stroke="black" points="245.77,-1028.67 235.53,-1025.94 241.83,-1034.46 245.77,-1028.67"/>
<text text-anchor="middle" x="301.5" y="-1061.22" font-family="Helvetica,Arial,sans-serif" font-size="14.00">()</text>
</g>
<!-- collateral&#45;a&#45;1 -->
<g id="node10" class="node">
<title>collateral&#45;a&#45;1</title>
<polygon fill="none" stroke="black" points="28,-862.5 28,-931.5 144.5,-931.5 144.5,-862.5 28,-862.5"/>
<text text-anchor="middle" x="86.25" y="-914.2" font-family="Helvetica,Arial,sans-serif" font-size="14.00">game&#45;address&#45;A</text>
<polyline fill="none" stroke="black" points="28,-908.5 144.5,-908.5"/>
<text text-anchor="middle" x="86.25" y="-891.2" font-family="Helvetica,Arial,sans-serif" font-size="14.00">8 ADA</text>
<polyline fill="none" stroke="black" points="28,-885.5 144.5,-885.5"/>
<text text-anchor="middle" x="86.25" y="-868.2" font-family="Helvetica,Arial,sans-serif" font-size="14.00"> </text>
</g>
<!-- new&#45;game&#45;&gt;collateral&#45;a&#45;1 -->
<g id="edge10" class="edge">
<title>new&#45;game&#45;&gt;collateral&#45;a&#45;1</title>
<path fill="none" stroke="black" d="M177.93,-980.2C164.47,-968.13 147.3,-952.73 131.46,-938.54"/>
<polygon fill="black" stroke="black" points="134.12,-936.32 124.33,-932.25 129.44,-941.53 134.12,-936.32"/>
</g>
<!-- game&#45;state&#45;1 -->
<g id="node11" class="node">
<title>game&#45;state&#45;1</title>
<polygon fill="none" stroke="black" points="162.25,-862.5 162.25,-931.5 376.25,-931.5 376.25,-862.5 162.25,-862.5"/>
<text text-anchor="middle" x="269.25" y="-914.2" font-family="Helvetica,Arial,sans-serif" font-size="14.00">game&#45;script</text>
<polyline fill="none" stroke="black" points="162.25,-908.5 376.25,-908.5"/>
<text text-anchor="middle" x="269.25" y="-891.2" font-family="Helvetica,Arial,sans-serif" font-size="14.00">4 ADA + 1 pid.pkhA + 1 pid.pkhB</text>
<polyline fill="none" stroke="black" points="162.25,-885.5 376.25,-885.5"/>
<text text-anchor="middle" x="222.12" y="-868.2" font-family="Helvetica,Arial,sans-serif" font-size="14.00">initial</text>
<polyline fill="none" stroke="black" points="282,-862.5 282,-885.5"/>
<text text-anchor="middle" x="328.88" y="-868.2" font-family="Helvetica,Arial,sans-serif" font-size="14.00"> </text>
</g>
<!-- new&#45;game&#45;&gt;game&#45;state&#45;1 -->
<g id="edge11" class="edge">
<title>new&#45;game&#45;&gt;game&#45;state&#45;1</title>
<path fill="none" stroke="black" d="M216.3,-980.2C223.79,-968.57 233.26,-953.86 242.13,-940.1"/>
<polygon fill="black" stroke="black" points="245.36,-942.55 247.83,-932.25 239.47,-938.76 245.36,-942.55"/>
</g>
<!-- play&#45;1 -->
<g id="node12" class="node">
<title>play&#45;1</title>
<path fill="none" stroke="black" d="M208.25,-779.5C208.25,-779.5 238.25,-779.5 238.25,-779.5 244.25,-779.5 250.25,-785.5 250.25,-791.5 250.25,-791.5 250.25,-813.5 250.25,-813.5 250.25,-819.5 244.25,-825.5 238.25,-825.5 238.25,-825.5 208.25,-825.5 208.25,-825.5 202.25,-825.5 196.25,-819.5 196.25,-813.5 196.25,-813.5 196.25,-791.5 196.25,-791.5 196.25,-785.5 202.25,-779.5 208.25,-779.5"/>
<text text-anchor="middle" x="222.88" y="-808.2" font-family="Helvetica,Arial,sans-serif" font-size="14.00">play</text>
<polyline fill="none" stroke="black" points="196.25,-802.5 249.5,-802.5"/>
<text text-anchor="middle" x="222.88" y="-785.2" font-family="Helvetica,Arial,sans-serif" font-size="14.00">σ(A)</text>
</g>
<!-- collateral&#45;a&#45;1&#45;&gt;play&#45;1 -->
<g id="edge12" class="edge">
<title>collateral&#45;a&#45;1&#45;&gt;play&#45;1</title>
<path fill="none" stroke="black" d="M135.71,-862.61C152.88,-851.01 171.79,-838.25 187.62,-827.56"/>
<polygon fill="black" stroke="black" points="189.22,-830.02 195.55,-821.53 185.3,-824.22 189.22,-830.02"/>
</g>
<!-- game&#45;state&#45;1&#45;&gt;play&#45;1 -->
<g id="edge13" class="edge">
<title>game&#45;state&#45;1&#45;&gt;play&#45;1</title>
<path fill="none" stroke="black" d="M252.64,-862.61C248.16,-853.58 243.32,-843.85 238.88,-834.94"/>
<polygon fill="black" stroke="black" points="241.68,-833.7 234.09,-826.3 235.41,-836.82 241.68,-833.7"/>
<text text-anchor="middle" x="235.39" y="-849.31" font-family="Helvetica,Arial,sans-serif" font-size="14.00">e2&#45;e4</text>
</g>
<!-- collateral&#45;a&#45;2 -->
<g id="node13" class="node">
<title>collateral&#45;a&#45;2</title>
<polygon fill="none" stroke="black" points="74,-673.5 74,-742.5 190.5,-742.5 190.5,-673.5 74,-673.5"/>
<text text-anchor="middle" x="132.25" y="-725.2" font-family="Helvetica,Arial,sans-serif" font-size="14.00">game&#45;address&#45;A</text>
<polyline fill="none" stroke="black" points="74,-719.5 190.5,-719.5"/>
<text text-anchor="middle" x="132.25" y="-702.2" font-family="Helvetica,Arial,sans-serif" font-size="14.00">8 ADA</text>
<polyline fill="none" stroke="black" points="74,-696.5 190.5,-696.5"/>
<text text-anchor="middle" x="132.25" y="-679.2" font-family="Helvetica,Arial,sans-serif" font-size="14.00"> </text>
</g>
<!-- play&#45;1&#45;&gt;collateral&#45;a&#45;2 -->
<g id="edge15" class="edge">
<title>play&#45;1&#45;&gt;collateral&#45;a&#45;2</title>
<path fill="none" stroke="black" d="M201.68,-779.58C192.97,-770.72 182.62,-760.21 172.61,-750.03"/>
<polygon fill="black" stroke="black" points="175.56,-748.02 166.05,-743.35 170.57,-752.93 175.56,-748.02"/>
</g>
<!-- game&#45;state&#45;2 -->
<g id="node14" class="node">
<title>game&#45;state&#45;2</title>
<polygon fill="none" stroke="black" points="208.25,-673.5 208.25,-742.5 422.25,-742.5 422.25,-673.5 208.25,-673.5"/>
<text text-anchor="middle" x="315.25" y="-725.2" font-family="Helvetica,Arial,sans-serif" font-size="14.00">game&#45;script</text>
<polyline fill="none" stroke="black" points="208.25,-719.5 422.25,-719.5"/>
<text text-anchor="middle" x="315.25" y="-702.2" font-family="Helvetica,Arial,sans-serif" font-size="14.00">4 ADA + 1 pid.pkhA + 1 pid.pkhB</text>
<polyline fill="none" stroke="black" points="208.25,-696.5 422.25,-696.5"/>
<text text-anchor="middle" x="260.62" y="-679.2" font-family="Helvetica,Arial,sans-serif" font-size="14.00">initial</text>
<polyline fill="none" stroke="black" points="313,-673.5 313,-696.5"/>
<text text-anchor="middle" x="367.25" y="-679.2" font-family="Helvetica,Arial,sans-serif" font-size="14.00">e2&#45;e4</text>
</g>
<!-- play&#45;1&#45;&gt;game&#45;state&#45;2 -->
<g id="edge14" class="edge">
<title>play&#45;1&#45;&gt;game&#45;state&#45;2</title>
<path fill="none" stroke="black" d="M245.05,-779.58C253.86,-770.72 264.32,-760.21 274.44,-750.03"/>
<polygon fill="black" stroke="black" points="276.51,-752.9 281.08,-743.35 271.55,-747.97 276.51,-752.9"/>
</g>
<!-- game&#45;state&#45;2&#45;&gt;play&#45;2 -->
<g id="edge17" class="edge">
<title>game&#45;state&#45;2&#45;&gt;play&#45;2</title>
<path fill="none" stroke="black" d="M339.44,-673.61C346.19,-664.29 353.48,-654.22 360.1,-645.08"/>
<polygon fill="black" stroke="black" points="363.43,-647.46 366.46,-637.3 357.76,-643.35 363.43,-647.46"/>
<text text-anchor="middle" x="322.19" y="-660.31" font-family="Helvetica,Arial,sans-serif" font-size="14.00">e7&#45;e5</text>
</g>
<!-- collateral&#45;b&#45;2 -->
<g id="node16" class="node">
<title>collateral&#45;b&#45;2</title>
<polygon fill="none" stroke="black" points="233,-484.5 233,-553.5 349.5,-553.5 349.5,-484.5 233,-484.5"/>
<text text-anchor="middle" x="291.25" y="-536.2" font-family="Helvetica,Arial,sans-serif" font-size="14.00">game&#45;address&#45;B</text>
<polyline fill="none" stroke="black" points="233,-530.5 349.5,-530.5"/>
<text text-anchor="middle" x="291.25" y="-513.2" font-family="Helvetica,Arial,sans-serif" font-size="14.00">8 ADA</text>
<polyline fill="none" stroke="black" points="233,-507.5 349.5,-507.5"/>
<text text-anchor="middle" x="291.25" y="-490.2" font-family="Helvetica,Arial,sans-serif" font-size="14.00"> </text>
</g>
<!-- play&#45;2&#45;&gt;collateral&#45;b&#45;2 -->
<g id="edge19" class="edge">
<title>play&#45;2&#45;&gt;collateral&#45;b&#45;2</title>
<path fill="none" stroke="black" d="M360.68,-590.58C351.97,-581.72 341.62,-571.21 331.61,-561.03"/>
<polygon fill="black" stroke="black" points="334.56,-559.02 325.05,-554.35 329.57,-563.93 334.56,-559.02"/>
</g>
<!-- game&#45;state&#45;3 -->
<g id="node17" class="node">
<title>game&#45;state&#45;3</title>
<polygon fill="none" stroke="black" points="367.25,-484.5 367.25,-553.5 581.25,-553.5 581.25,-484.5 367.25,-484.5"/>
<text text-anchor="middle" x="474.25" y="-536.2" font-family="Helvetica,Arial,sans-serif" font-size="14.00">game&#45;script</text>
<polyline fill="none" stroke="black" points="367.25,-530.5 581.25,-530.5"/>
<text text-anchor="middle" x="474.25" y="-513.2" font-family="Helvetica,Arial,sans-serif" font-size="14.00">4 ADA + 1 pid.pkhA + 1 pid.pkhB</text>
<polyline fill="none" stroke="black" points="367.25,-507.5 581.25,-507.5"/>
<text text-anchor="middle" x="409.12" y="-490.2" font-family="Helvetica,Arial,sans-serif" font-size="14.00">initial</text>
<polyline fill="none" stroke="black" points="451,-484.5 451,-507.5"/>
<text text-anchor="middle" x="515.75" y="-490.2" font-family="Helvetica,Arial,sans-serif" font-size="14.00">e2&#45;e4. e7&#45;e5</text>
</g>
<!-- play&#45;2&#45;&gt;game&#45;state&#45;3 -->
<g id="edge18" class="edge">
<title>play&#45;2&#45;&gt;game&#45;state&#45;3</title>
<path fill="none" stroke="black" d="M404.05,-590.58C412.86,-581.72 423.32,-571.21 433.44,-561.03"/>
<polygon fill="black" stroke="black" points="435.51,-563.9 440.08,-554.35 430.55,-558.97 435.51,-563.9"/>
</g>
<!-- game&#45;state&#45;n -->
<g id="node18" class="node">
<title>game&#45;state&#45;n</title>
<polygon fill="none" stroke="black" points="367.25,-378.5 367.25,-447.5 581.25,-447.5 581.25,-378.5 367.25,-378.5"/>
<text text-anchor="middle" x="474.25" y="-430.2" font-family="Helvetica,Arial,sans-serif" font-size="14.00">game&#45;script</text>
<polyline fill="none" stroke="black" points="367.25,-424.5 581.25,-424.5"/>
<text text-anchor="middle" x="474.25" y="-407.2" font-family="Helvetica,Arial,sans-serif" font-size="14.00">4 ADA + 1 pid.pkhA + 1 pid.pkhB</text>
<polyline fill="none" stroke="black" points="367.25,-401.5 581.25,-401.5"/>
<text text-anchor="middle" x="414.5" y="-384.2" font-family="Helvetica,Arial,sans-serif" font-size="14.00">check&#45;mate</text>
<polyline fill="none" stroke="black" points="461.75,-378.5 461.75,-401.5"/>
<text text-anchor="middle" x="521.38" y="-384.2" font-family="Helvetica,Arial,sans-serif" font-size="14.00">e2&#45;e4. e7&#45;e5. ...</text>
</g>
<!-- game&#45;state&#45;3&#45;&gt;game&#45;state&#45;n -->
<g id="edge20" class="edge">
<title>game&#45;state&#45;3&#45;&gt;game&#45;state&#45;n</title>
<path fill="none" stroke="black" stroke-dasharray="1,5" d="M474.25,-484.52C474.25,-476.17 474.25,-467.09 474.25,-458.3"/>
<polygon fill="black" stroke="black" points="477.75,-458.42 474.25,-448.42 470.75,-458.42 477.75,-458.42"/>
</g>
<!-- end&#45;game&#45;a -->
<g id="node23" class="node">
<title>end&#45;game&#45;a</title>
<path fill="none" stroke="black" d="M538.5,-295.5C538.5,-295.5 592,-295.5 592,-295.5 598,-295.5 604,-301.5 604,-307.5 604,-307.5 604,-329.5 604,-329.5 604,-335.5 598,-341.5 592,-341.5 592,-341.5 538.5,-341.5 538.5,-341.5 532.5,-341.5 526.5,-335.5 526.5,-329.5 526.5,-329.5 526.5,-307.5 526.5,-307.5 526.5,-301.5 532.5,-295.5 538.5,-295.5"/>
<text text-anchor="middle" x="565.25" y="-324.2" font-family="Helvetica,Arial,sans-serif" font-size="14.00">end&#45;game</text>
<polyline fill="none" stroke="black" points="526.5,-318.5 604,-318.5"/>
<text text-anchor="middle" x="565.25" y="-301.2" font-family="Helvetica,Arial,sans-serif" font-size="14.00">σ(A)</text>
</g>
<!-- game&#45;state&#45;n&#45;&gt;end&#45;game&#45;a -->
<g id="edge21" class="edge">
<title>game&#45;state&#45;n&#45;&gt;end&#45;game&#45;a</title>
<path fill="none" stroke="black" d="M507.1,-378.61C516.65,-368.9 527,-358.38 536.29,-348.94"/>
<polygon fill="black" stroke="black" points="538.28,-351.89 542.8,-342.3 533.29,-346.98 538.28,-351.89"/>
<text text-anchor="middle" x="495.1" y="-365.31" font-family="Helvetica,Arial,sans-serif" font-size="14.00">End</text>
</g>
<!-- collateral&#45;a&#45;n -->
<g id="node19" class="node">
<title>collateral&#45;a&#45;n</title>
<polygon fill="none" stroke="black" points="599,-378.5 599,-447.5 715.5,-447.5 715.5,-378.5 599,-378.5"/>
<text text-anchor="middle" x="657.25" y="-430.2" font-family="Helvetica,Arial,sans-serif" font-size="14.00">game&#45;address&#45;A</text>
<polyline fill="none" stroke="black" points="599,-424.5 715.5,-424.5"/>
<text text-anchor="middle" x="657.25" y="-407.2" font-family="Helvetica,Arial,sans-serif" font-size="14.00">8 ADA</text>
<polyline fill="none" stroke="black" points="599,-401.5 715.5,-401.5"/>
<text text-anchor="middle" x="657.25" y="-384.2" font-family="Helvetica,Arial,sans-serif" font-size="14.00"> </text>
</g>
<!-- collateral&#45;a&#45;n&#45;&gt;end&#45;game&#45;a -->
<g id="edge22" class="edge">
<title>collateral&#45;a&#45;n&#45;&gt;end&#45;game&#45;a</title>
<path fill="none" stroke="black" d="M624.04,-378.61C614.39,-368.9 603.92,-358.38 594.53,-348.94"/>
<polygon fill="black" stroke="black" points="597.47,-346.93 587.94,-342.3 592.51,-351.86 597.47,-346.93"/>
</g>
<!-- game&#45;token&#45;a&#45;n -->
<g id="node20" class="node">
<title>game&#45;token&#45;a&#45;n</title>
<polygon fill="none" stroke="black" points="314,-189.5 314,-258.5 448.5,-258.5 448.5,-189.5 314,-189.5"/>
<text text-anchor="middle" x="381.25" y="-241.2" font-family="Helvetica,Arial,sans-serif" font-size="14.00">elo&#45;script(pkhA)</text>
<polyline fill="none" stroke="black" points="314,-235.5 448.5,-235.5"/>
<text text-anchor="middle" x="381.25" y="-218.2" font-family="Helvetica,Arial,sans-serif" font-size="14.00">2 ADA + 1 pid.pkhA</text>
<polyline fill="none" stroke="black" points="314,-212.5 448.5,-212.5"/>
<text text-anchor="middle" x="381.25" y="-195.2" font-family="Helvetica,Arial,sans-serif" font-size="14.00">1020</text>
</g>
<!-- game&#45;state&#45;n+1 -->
<g id="node21" class="node">
<title>game&#45;state&#45;n+1</title>
<polygon fill="none" stroke="black" points="466.38,-189.5 466.38,-258.5 664.12,-258.5 664.12,-189.5 466.38,-189.5"/>
<text text-anchor="middle" x="565.25" y="-241.2" font-family="Helvetica,Arial,sans-serif" font-size="14.00">game&#45;script</text>
<polyline fill="none" stroke="black" points="466.38,-235.5 664.12,-235.5"/>
<text text-anchor="middle" x="565.25" y="-218.2" font-family="Helvetica,Arial,sans-serif" font-size="14.00">2 ADA + 1 pid.pkhB</text>
<polyline fill="none" stroke="black" points="466.38,-212.5 664.12,-212.5"/>
<text text-anchor="middle" x="509.62" y="-195.2" font-family="Helvetica,Arial,sans-serif" font-size="14.00">check&#45;mate</text>
<polyline fill="none" stroke="black" points="552.88,-189.5 552.88,-212.5"/>
<text text-anchor="middle" x="608.5" y="-195.2" font-family="Helvetica,Arial,sans-serif" font-size="14.00">e2&#45;e4. e7&#45;e5. ...</text>
</g>
<!-- end&#45;game&#45;b -->
<g id="node27" class="node">
<title>end&#45;game&#45;b</title>
<path fill="none" stroke="black" d="M693.5,-106.5C693.5,-106.5 747,-106.5 747,-106.5 753,-106.5 759,-112.5 759,-118.5 759,-118.5 759,-140.5 759,-140.5 759,-146.5 753,-152.5 747,-152.5 747,-152.5 693.5,-152.5 693.5,-152.5 687.5,-152.5 681.5,-146.5 681.5,-140.5 681.5,-140.5 681.5,-118.5 681.5,-118.5 681.5,-112.5 687.5,-106.5 693.5,-106.5"/>
<text text-anchor="middle" x="720.25" y="-135.2" font-family="Helvetica,Arial,sans-serif" font-size="14.00">end&#45;game</text>
<polyline fill="none" stroke="black" points="681.5,-129.5 759,-129.5"/>
<text text-anchor="middle" x="720.25" y="-112.2" font-family="Helvetica,Arial,sans-serif" font-size="14.00">σ(B)</text>
</g>
<!-- game&#45;state&#45;n+1&#45;&gt;end&#45;game&#45;b -->
<g id="edge26" class="edge">
<title>game&#45;state&#45;n+1&#45;&gt;end&#45;game&#45;b</title>
<path fill="none" stroke="black" d="M621.21,-189.61C638.77,-179.13 657.93,-167.69 674.68,-157.69"/>
<polygon fill="black" stroke="black" points="675.92,-160.43 682.71,-152.3 672.33,-154.42 675.92,-160.43"/>
<text text-anchor="middle" x="609.21" y="-176.31" font-family="Helvetica,Arial,sans-serif" font-size="14.00">End</text>
</g>
<!-- collateral&#45;a&#45;n+1 -->
<g id="node22" class="node">
<title>collateral&#45;a&#45;n+1</title>
<polygon fill="none" stroke="black" points="682,-189.5 682,-258.5 798.5,-258.5 798.5,-189.5 682,-189.5"/>
<text text-anchor="middle" x="740.25" y="-241.2" font-family="Helvetica,Arial,sans-serif" font-size="14.00">game&#45;address&#45;A</text>
<polyline fill="none" stroke="black" points="682,-235.5 798.5,-235.5"/>
<text text-anchor="middle" x="740.25" y="-218.2" font-family="Helvetica,Arial,sans-serif" font-size="14.00">8 ADA</text>
<polyline fill="none" stroke="black" points="682,-212.5 798.5,-212.5"/>
<text text-anchor="middle" x="740.25" y="-195.2" font-family="Helvetica,Arial,sans-serif" font-size="14.00"> </text>
</g>
<!-- end&#45;game&#45;a&#45;&gt;game&#45;token&#45;a&#45;n -->
<g id="edge24" class="edge">
<title>end&#45;game&#45;a&#45;&gt;game&#45;token&#45;a&#45;n</title>
<path fill="none" stroke="black" d="M526.68,-298.11C506.58,-288.01 481.27,-275.28 457.43,-263.3"/>
<polygon fill="black" stroke="black" points="459.18,-259.76 448.68,-258.39 456.04,-266.01 459.18,-259.76"/>
</g>
<!-- end&#45;game&#45;a&#45;&gt;game&#45;state&#45;n+1 -->
<g id="edge25" class="edge">
<title>end&#45;game&#45;a&#45;&gt;game&#45;state&#45;n+1</title>
<path fill="none" stroke="black" d="M565.25,-295.58C565.25,-287.68 565.25,-278.45 565.25,-269.33"/>
<polygon fill="black" stroke="black" points="568.75,-269.35 565.25,-259.35 561.75,-269.35 568.75,-269.35"/>
</g>
<!-- end&#45;game&#45;a&#45;&gt;collateral&#45;a&#45;n+1 -->
<g id="edge23" class="edge">
<title>end&#45;game&#45;a&#45;&gt;collateral&#45;a&#45;n+1</title>
<path fill="none" stroke="black" d="M603.65,-297.2C623.9,-286.5 649.34,-273.05 672.76,-260.67"/>
<polygon fill="black" stroke="black" points="674.1,-263.4 681.31,-255.63 670.83,-257.21 674.1,-263.4"/>
</g>
<!-- collateral&#45;b&#45;n -->
<g id="node24" class="node">
<title>collateral&#45;b&#45;n</title>
<polygon fill="none" stroke="black" points="817,-189.5 817,-258.5 933.5,-258.5 933.5,-189.5 817,-189.5"/>
<text text-anchor="middle" x="875.25" y="-241.2" font-family="Helvetica,Arial,sans-serif" font-size="14.00">game&#45;address&#45;B</text>
<polyline fill="none" stroke="black" points="817,-235.5 933.5,-235.5"/>
<text text-anchor="middle" x="875.25" y="-218.2" font-family="Helvetica,Arial,sans-serif" font-size="14.00">8 ADA</text>
<polyline fill="none" stroke="black" points="817,-212.5 933.5,-212.5"/>
<text text-anchor="middle" x="875.25" y="-195.2" font-family="Helvetica,Arial,sans-serif" font-size="14.00"> </text>
</g>
<!-- collateral&#45;b&#45;n&#45;&gt;end&#45;game&#45;b -->
<g id="edge27" class="edge">
<title>collateral&#45;b&#45;n&#45;&gt;end&#45;game&#45;b</title>
<path fill="none" stroke="black" d="M819.29,-189.61C801.73,-179.13 782.57,-167.69 765.82,-157.69"/>
<polygon fill="black" stroke="black" points="768.17,-154.42 757.79,-152.3 764.58,-160.43 768.17,-154.42"/>
</g>
<!-- game&#45;token&#45;b&#45;n -->
<g id="node25" class="node">
<title>game&#45;token&#45;b&#45;n</title>
<polygon fill="none" stroke="black" points="581,-0.5 581,-69.5 715.5,-69.5 715.5,-0.5 581,-0.5"/>
<text text-anchor="middle" x="648.25" y="-52.2" font-family="Helvetica,Arial,sans-serif" font-size="14.00">elo&#45;script(pkhB)</text>
<polyline fill="none" stroke="black" points="581,-46.5 715.5,-46.5"/>
<text text-anchor="middle" x="648.25" y="-29.2" font-family="Helvetica,Arial,sans-serif" font-size="14.00">2 ADA + 1 pid.pkhB</text>
<polyline fill="none" stroke="black" points="581,-23.5 715.5,-23.5"/>
<text text-anchor="middle" x="648.25" y="-6.2" font-family="Helvetica,Arial,sans-serif" font-size="14.00">980</text>
</g>
<!-- collateral&#45;b&#45;n+1 -->
<g id="node26" class="node">
<title>collateral&#45;b&#45;n+1</title>
<polygon fill="none" stroke="black" points="734,-0.5 734,-69.5 850.5,-69.5 850.5,-0.5 734,-0.5"/>
<text text-anchor="middle" x="792.25" y="-52.2" font-family="Helvetica,Arial,sans-serif" font-size="14.00">game&#45;address&#45;B</text>
<polyline fill="none" stroke="black" points="734,-46.5 850.5,-46.5"/>
<text text-anchor="middle" x="792.25" y="-29.2" font-family="Helvetica,Arial,sans-serif" font-size="14.00">8 ADA</text>
<polyline fill="none" stroke="black" points="734,-23.5 850.5,-23.5"/>
<text text-anchor="middle" x="792.25" y="-6.2" font-family="Helvetica,Arial,sans-serif" font-size="14.00"> </text>
</g>
<!-- end&#45;game&#45;b&#45;&gt;game&#45;token&#45;b&#45;n -->
<g id="edge29" class="edge">
<title>end&#45;game&#45;b&#45;&gt;game&#45;token&#45;b&#45;n</title>
<path fill="none" stroke="black" d="M703.19,-106.58C696.5,-97.98 688.59,-87.82 680.89,-77.93"/>
<polygon fill="black" stroke="black" points="683.11,-76.09 674.21,-70.35 677.59,-80.39 683.11,-76.09"/>
</g>
<!-- end&#45;game&#45;b&#45;&gt;collateral&#45;b&#45;n+1 -->
<g id="edge28" class="edge">
<title>end&#45;game&#45;b&#45;&gt;collateral&#45;b&#45;n+1</title>
<path fill="none" stroke="black" d="M737.31,-106.58C744,-97.98 751.91,-87.82 759.61,-77.93"/>
<polygon fill="black" stroke="black" points="762.91,-80.39 766.29,-70.35 757.39,-76.09 762.91,-80.39"/>
</g>
</g>
</svg>
